<svg xmlns="http://www.w3.org/2000/svg" width="16" height="16">
    <g fill="#2e3436">
        <path d="M10.793 2.333h-5.587c-2.427 0 -3.873 1.447 -3.873 3.873v5.58c0 2.433 1.447 3.88 3.873 3.88h5.58c2.427 0 3.873 -1.447 3.873 -3.873v-5.587c0.007 -2.427 -1.44 -3.873 -3.867 -3.873zM6.607 11.793c0 0.427 -0.347 0.773 -0.78 0.773 -0.427 0 -0.773 -0.347 -0.773 -0.773v-2.173c0 -0.427 0.347 -0.773 0.773 -0.773 0.433 0 0.78 0.347 0.78 0.773v2.173zM10.947 11.793c0 0.427 -0.347 0.773 -0.773 0.773 -0.433 0 -0.78 -0.347 -0.78 -0.773v-5.587c0 -0.427 0.347 -0.773 0.78 -0.773 0.427 0 0.773 0.347 0.773 0.773v5.587z"/>
    </g>
</svg>
