<svg xmlns="http://www.w3.org/2000/svg" width="16" height="16">
    <g fill="#2e3436">
        <path d="M8.001 10.5c0.276 0 0.5 0.224 0.5 0.5v1.442l1.249 -0.721c0.239 -0.138 0.545 -0.056 0.683 0.183 0.138 0.239 0.056 0.545 -0.183 0.683l-1.249 0.721 1.25 0.722c0.239 0.138 0.321 0.444 0.183 0.683s-0.444 0.321 -0.683 0.183l-1.25 -0.722v1.492c0 0.276 -0.224 0.5 -0.5 0.5s-0.5 -0.224 -0.5 -0.5v-1.492l-1.25 0.722c-0.239 0.138 -0.545 0.056 -0.683 -0.183s-0.056 -0.545 0.183 -0.683l1.25 -0.722 -1.249 -0.721c-0.239 -0.138 -0.321 -0.444 -0.183 -0.683 0.138 -0.239 0.444 -0.321 0.683 -0.183l1.249 0.721v-1.442c0 -0.276 0.224 -0.5 0.5 -0.5zM5.043 13.308c-0.553 -0.458 -0.711 -1.261 -0.34 -1.904 0.371 -0.643 1.146 -0.907 1.819 -0.657 0.12 -0.708 0.737 -1.247 1.479 -1.247 0.742 0 1.358 0.539 1.479 1.247 0.673 -0.25 1.448 0.015 1.819 0.657 0.371 0.643 0.212 1.446 -0.34 1.904l-0.291 0.359 0.592 -0.021c1.915 -0.198 3.408 -1.799 3.408 -3.744 0 -1.648 -1.071 -3.048 -2.563 -3.559 -0.212 -1.881 -1.826 -3.343 -3.786 -3.343 -2.104 0 -3.81 1.686 -3.81 3.765 0 0.46 0.083 0.9 0.236 1.308 -0.179 -0.035 -0.364 -0.053 -0.554 -0.053 -1.578 0 -2.857 1.264 -2.857 2.824s1.279 2.824 2.857 2.824h1.143l-0.291 -0.359z"/>
    </g>
</svg>
