<svg xmlns="http://www.w3.org/2000/svg" width="16" height="16">
    <g fill="#2e3436">
        <path d="M10.076 14.609c0.026 0.038 0.041 0.082 0.043 0.127s-0.007 0.091 -0.029 0.131c-0.021 0.04 -0.053 0.074 -0.092 0.097 -0.039 0.023 -0.084 0.036 -0.129 0.036h-3.738c-0.046 0 -0.09 -0.012 -0.129 -0.036s-0.071 -0.057 -0.092 -0.097c-0.021 -0.04 -0.031 -0.086 -0.029 -0.131s0.018 -0.089 0.043 -0.127c0.229 -0.341 0.538 -0.62 0.9 -0.813s0.766 -0.294 1.176 -0.294c0.41 0 0.814 0.101 1.176 0.294 0.362 0.193 0.671 0.472 0.9 0.813zM14.384 14.819c-0.05 0.058 -0.111 0.104 -0.181 0.135 -0.069 0.031 -0.145 0.047 -0.221 0.045h-2.447c-0.051 -0 -0.102 -0.016 -0.144 -0.046s-0.074 -0.072 -0.091 -0.12c-0.241 -0.682 -0.688 -1.273 -1.279 -1.691 -0.591 -0.418 -1.297 -0.642 -2.021 -0.642s-1.43 0.224 -2.021 0.642c-0.591 0.418 -1.038 1.008 -1.279 1.691 -0.017 0.048 -0.049 0.09 -0.091 0.12s-0.092 0.046 -0.144 0.046h-2.451c-0.076 0.001 -0.152 -0.015 -0.221 -0.046 -0.069 -0.032 -0.131 -0.078 -0.18 -0.137 -0.073 -0.089 -0.113 -0.2 -0.113 -0.314s0.038 -0.226 0.11 -0.315c0.004 -0.004 0.477 -0.611 0.945 -1.795 0.431 -1.093 0.946 -2.915 0.946 -5.393 0 -1.193 0.474 -2.338 1.318 -3.182 0.844 -0.844 1.988 -1.318 3.182 -1.318 1.193 0 2.338 0.474 3.182 1.318 0.844 0.844 1.318 1.988 1.318 3.182 0 2.478 0.514 4.3 0.946 5.393 0.468 1.184 0.941 1.791 0.946 1.796 0.071 0.09 0.11 0.202 0.108 0.317 -0.001 0.115 -0.042 0.226 -0.115 0.314zM5.5 7.75c0 0.148 0.044 0.293 0.126 0.417 0.082 0.123 0.2 0.219 0.337 0.276 0.137 0.057 0.288 0.072 0.433 0.043 0.145 -0.029 0.279 -0.1 0.384 -0.205 0.105 -0.105 0.176 -0.239 0.205 -0.384 0.029 -0.145 0.014 -0.296 -0.043 -0.433s-0.153 -0.254 -0.276 -0.337c-0.123 -0.082 -0.268 -0.126 -0.417 -0.126 -0.199 0 -0.39 0.079 -0.53 0.22s-0.22 0.331 -0.22 0.53zM10.447 9.776c-0.059 -0.119 -0.163 -0.209 -0.289 -0.251 -0.126 -0.042 -0.263 -0.032 -0.382 0.027l-1.777 0.889 -1.776 -0.889c-0.119 -0.059 -0.256 -0.069 -0.382 -0.027 -0.126 0.042 -0.23 0.132 -0.289 0.251 -0.059 0.119 -0.069 0.256 -0.027 0.382 0.042 0.126 0.132 0.23 0.251 0.289l2 1c0.069 0.035 0.146 0.053 0.223 0.053s0.154 -0.018 0.223 -0.053l2 -1c0.059 -0.029 0.111 -0.07 0.154 -0.12 0.043 -0.05 0.076 -0.107 0.097 -0.17 0.021 -0.062 0.029 -0.128 0.024 -0.194 -0.005 -0.066 -0.022 -0.13 -0.052 -0.188zM10.5 7.75c0 -0.148 -0.044 -0.293 -0.126 -0.417 -0.082 -0.123 -0.2 -0.219 -0.337 -0.276 -0.137 -0.057 -0.288 -0.072 -0.433 -0.043 -0.145 0.029 -0.279 0.1 -0.384 0.205 -0.105 0.105 -0.176 0.239 -0.205 0.384 -0.029 0.145 -0.014 0.296 0.043 0.433 0.057 0.137 0.153 0.254 0.276 0.337 0.123 0.082 0.268 0.126 0.417 0.126 0.199 0 0.39 -0.079 0.53 -0.22 0.141 -0.141 0.22 -0.331 0.22 -0.53z"/>
    </g>
</svg>
