<svg xmlns="http://www.w3.org/2000/svg" width="16" height="16">
    <g fill="#2e3436">
        <path d="M7.88 5.6c1.907 -0.413 3.84 -0.473 5.753 -0.16 -1.18 -1.867 -3.26 -3.107 -5.633 -3.107 -2.073 0 -3.927 0.947 -5.153 2.433 0.293 0.867 0.667 1.693 1.113 2.48 0.253 0.453 0.9 0.433 1.16 -0.013 0.567 -0.953 1.587 -1.593 2.76 -1.633zM5.147 10.813c-1.333 -1.427 -2.373 -3.053 -3.087 -4.853 -1 1.973 -0.993 4.393 0.227 6.427 1.067 1.78 2.827 2.887 4.733 3.173 0.593 -0.7 1.113 -1.447 1.56 -2.227 0.26 -0.453 -0.093 -0.993 -0.613 -0.993 -1.113 0.007 -2.187 -0.54 -2.82 -1.527zM5.714 9c0 0.407 0.1 0.787 0.307 1.147 0.407 0.7 1.16 1.14 1.973 1.14s1.573 -0.44 1.973 -1.14c0.207 -0.36 0.313 -0.74 0.313 -1.147 0 -1.26 -1.027 -2.28 -2.287 -2.28 -1.253 -0.007 -2.28 1.02 -2.28 2.28zM14.227 6.613c-0.913 -0.193 -1.84 -0.3 -2.76 -0.313 -0.527 -0.007 -0.827 0.567 -0.567 1.027 0.267 0.473 0.42 1.02 0.42 1.6 0 0.56 -0.147 1.113 -0.42 1.607 -0.627 1.92 -1.56 3.627 -2.793 5.133 3.633 -0.06 6.56 -3.02 6.56 -6.667 0 -0.84 -0.153 -1.647 -0.44 -2.387z"/>
    </g>
</svg>
